<svg width="1535" height="263" viewBox="0 0 1535 263" fill="none" xmlns="http://www.w3.org/2000/svg">
<g clip-path="url(#clip0)">
<path d="M543.576 125.544L589.936 3.32352H613.761L660.12 125.555H634.468L623.834 94.5803H578.389L567.755 125.555H543.576V125.544ZM584.808 75.518H617.244L601.117 28.0622L584.808 75.518Z" fill="white"/>
<path d="M672.946 155.422L682.654 139.478C689.13 143.875 697.502 146.079 707.758 146.079C713.378 146.079 718.083 144.343 721.864 140.86C725.644 137.376 727.54 132.636 727.54 126.663V117.32C724.605 119.639 721.396 121.603 717.923 123.179C714.44 124.767 709.826 125.566 704.092 125.566C695.903 125.566 688.856 123.762 682.928 120.164C677.001 116.566 672.478 111.61 669.371 105.316C666.253 99.0232 664.7 91.8506 664.7 83.7871C664.7 75.2325 666.687 67.4774 670.65 60.5103C674.614 53.5433 680.244 48.0153 687.508 43.9265C694.772 39.8376 703.361 37.7818 713.252 37.7818C720.699 37.7818 727.609 38.3986 733.959 39.6092C740.309 40.8313 745.38 42.1105 749.172 43.4582V127.017C749.172 134.955 747.402 141.739 743.861 147.358C740.321 152.978 735.455 157.227 729.288 160.093C723.12 162.96 716.062 164.399 708.124 164.399C699.204 164.399 692.123 163.6 686.869 162.012C681.626 160.425 676.978 158.232 672.946 155.422ZM727.563 89.0752V58.2946C725.85 57.6893 724.08 57.221 722.252 56.924C720.425 56.6156 717.547 56.4672 713.64 56.4672C707.781 56.4672 702.859 57.7235 698.884 60.2248C694.909 62.7261 691.894 65.9926 689.815 70.0243C687.737 74.0561 686.697 78.4533 686.697 83.216C686.697 89.8176 688.342 95.3684 691.643 99.8912C694.944 104.414 700.255 106.676 707.587 106.676C720.904 106.676 727.563 100.805 727.563 89.0752Z" fill="white"/>
<path d="M839.527 99.8914L851.257 113.083C850.891 113.449 849.886 114.454 848.23 116.11C846.585 117.754 844.198 119.536 841.08 121.421C837.962 123.317 833.999 124.961 829.168 126.366C824.337 127.771 818.569 128.479 811.853 128.479C802.693 128.479 794.721 126.492 787.937 122.529C781.152 118.565 775.876 113.026 772.084 105.945C768.292 98.8635 766.407 90.7314 766.407 81.5715C766.407 73.1425 768.269 65.5359 771.992 58.7516C775.716 51.9673 780.844 46.5992 787.388 42.6246C793.921 38.6614 801.471 36.6741 810.014 36.6741C817.952 36.6741 824.611 38.0789 829.99 40.8886C835.37 43.6982 839.698 47.4558 842.999 52.1614C846.3 56.8671 848.676 62.1437 850.149 68.0143C851.611 73.8735 852.353 79.8697 852.353 85.9687V89.0868H788.211C788.211 93.2441 789.399 96.8761 791.786 99.9942C794.173 103.112 797.188 105.556 800.854 107.327C804.52 109.097 808.244 109.988 812.036 109.988C817.655 109.988 822.292 109.348 825.958 108.069C829.625 106.79 832.56 105.351 834.753 103.763C836.957 102.153 838.545 100.874 839.527 99.8914ZM780.147 26.589L799.21 0.571106H819.551L838.613 26.589H819.551L809.295 12.6663L799.221 26.589H780.147ZM788.028 73.508H830.173C830.173 70.5727 829.408 67.6717 827.877 64.8049C826.347 61.9382 824.12 59.5511 821.184 57.6551C818.249 55.7592 814.526 54.8112 810.003 54.8112C805.24 54.8112 801.231 55.7592 797.999 57.6551C794.755 59.5511 792.288 61.9382 790.575 64.8049C788.885 67.6717 788.028 70.5727 788.028 73.508Z" fill="white"/>
<path d="M869.029 125.544V39.598H889.735L890.284 49.3062C892.488 46.862 895.663 44.3264 899.809 41.6995C903.967 39.0726 909.403 37.7592 916.119 37.7592C926.752 37.7592 934.907 40.9686 940.583 47.376C946.26 53.7948 949.104 62.4293 949.104 73.3025V125.532H927.483V73.5081C927.483 68.1286 925.987 63.9141 922.995 60.8646C920.002 57.8151 916.119 56.2846 911.356 56.2846C905.371 56.2846 900.426 58.489 896.508 62.8862C892.602 67.2834 890.649 72.6629 890.649 79.0132V125.555H869.029V125.544Z" fill="white"/>
<path d="M1032.86 100.257L1045.68 114.179C1041.65 118.462 1036.85 121.877 1031.29 124.436C1025.73 127.006 1019.35 128.285 1012.14 128.285C1002.36 128.285 994.024 126.366 987.125 122.517C980.227 118.668 974.973 113.3 971.364 106.39C967.755 99.4914 965.962 91.5193 965.962 82.4736C965.962 74.1702 967.915 66.5293 971.821 59.5623C975.727 52.5953 981.141 47.0445 988.039 42.8871C994.938 38.7297 1002.98 36.651 1012.14 36.651C1019.11 36.651 1025.46 37.9074 1031.2 40.4087C1036.95 42.9099 1041.83 46.3021 1045.87 50.5737L1032.13 64.4963C1029.81 61.6867 1026.96 59.4938 1023.61 57.8948C1020.25 56.3072 1016.43 55.5077 1012.15 55.5077C1006.66 55.5077 1002.1 56.7869 998.501 59.3567C994.892 61.9265 992.208 65.2502 990.438 69.339C988.667 73.4279 987.776 77.8022 987.776 82.4393C987.776 86.7223 988.656 90.9368 990.438 95.0828C992.208 99.2402 994.892 102.655 998.501 105.351C1002.1 108.035 1006.66 109.382 1012.15 109.382C1016.42 109.382 1020.36 108.56 1023.97 106.904C1027.57 105.293 1030.53 103.066 1032.86 100.257Z" fill="white"/>
<path d="M1060.34 26.0406V3.32352H1083.43V26.0521H1060.34V26.0406ZM1061.08 125.544V39.5978H1082.7V125.544H1061.08Z" fill="white"/>
<path d="M1156.17 125.544L1155.63 117.48C1153.31 120.29 1149.73 122.791 1144.9 124.996C1140.07 127.2 1134.79 128.296 1129.05 128.296C1124.4 128.296 1119.8 127.314 1115.22 125.361C1110.64 123.408 1106.84 120.359 1103.85 116.201C1100.86 112.044 1099.36 106.79 1099.36 100.44C1099.36 90.663 1102.85 83.0907 1109.81 77.7112C1116.78 72.3317 1125.87 69.6477 1137.12 69.6477C1139.2 69.6477 1141.67 69.7162 1144.55 69.8304C1147.41 69.9561 1151.11 70.1388 1155.64 70.3787V68.3685C1155.64 64.0969 1153.92 60.739 1150.51 58.2949C1147.08 55.8507 1142.63 54.6286 1137.13 54.6286C1131.02 54.6286 1126.14 55.4281 1122.47 57.0157C1118.8 58.6032 1115.57 60.3164 1112.76 62.1439L1102.87 47.4788C1105.19 45.7656 1107.94 44.0867 1111.12 42.442C1114.29 40.7973 1118.2 39.4153 1122.85 38.3189C1127.48 37.2224 1133.23 36.6742 1140.07 36.6742C1151.07 36.6742 1159.86 39.5752 1166.45 45.3773C1173.05 51.1793 1176.34 58.6603 1176.34 67.8203V125.544H1156.17ZM1155.63 95.1288V86.6998C1152.82 86.46 1149.77 86.2772 1146.47 86.1516C1143.16 86.0374 1140.66 85.9688 1138.95 85.9688C1131.98 85.9688 1127.09 87.3394 1124.28 90.092C1121.48 92.8445 1120.07 95.9854 1120.07 99.526C1120.07 103.192 1121.38 106.059 1124.01 108.138C1126.64 110.216 1130.52 111.256 1135.65 111.256C1139.06 111.256 1142.27 110.525 1145.27 109.051C1148.26 107.59 1150.74 105.636 1152.69 103.192C1154.65 100.748 1155.63 98.0641 1155.63 95.1288Z" fill="white"/>
<path d="M1221.05 125.544L1189.35 3.32352H1214.64L1234.62 94.763L1258.26 6.80704H1279.15L1302.97 94.763L1322.77 3.32352H1346.96L1314.88 125.555H1290.69L1267.97 44.7374L1244.87 125.555H1221.05V125.544Z" fill="white"/>
<path d="M1420.25 99.8915L1431.98 113.083C1431.61 113.449 1430.61 114.454 1428.95 116.11C1427.31 117.755 1424.92 119.536 1421.8 121.421C1418.68 123.317 1414.72 124.961 1409.89 126.366C1405.06 127.771 1399.29 128.479 1392.57 128.479C1383.41 128.479 1375.44 126.492 1368.66 122.529C1361.87 118.565 1356.6 113.026 1352.8 105.945C1349.01 98.8636 1347.13 90.7316 1347.13 81.5716C1347.13 73.1426 1348.99 65.536 1352.71 58.7517C1356.44 51.9674 1361.56 46.5994 1368.11 42.6247C1374.64 38.6615 1382.19 36.6742 1390.75 36.6742C1398.68 36.6742 1405.34 38.079 1410.72 40.8887C1416.1 43.6983 1420.43 47.456 1423.73 52.1616C1427.03 56.8672 1429.41 62.1439 1430.88 68.0144C1432.34 73.8736 1433.08 79.8698 1433.08 85.9688V89.0869H1368.94C1368.94 93.2443 1370.13 96.8763 1372.52 99.9943C1374.9 103.112 1377.92 105.557 1381.59 107.327C1385.25 109.097 1388.97 109.988 1392.77 109.988C1398.39 109.988 1403.02 109.348 1406.69 108.069C1410.36 106.79 1413.29 105.351 1415.48 103.763C1417.68 102.153 1419.26 100.874 1420.25 99.8915ZM1368.75 73.5081H1410.89C1410.89 70.5728 1410.13 67.6718 1408.6 64.805C1407.07 61.9383 1404.84 59.5512 1401.9 57.6553C1398.97 55.7593 1395.25 54.8113 1390.72 54.8113C1385.96 54.8113 1381.95 55.7593 1378.72 57.6553C1375.47 59.5512 1373.01 61.9383 1371.29 64.805C1369.6 67.6718 1368.75 70.5728 1368.75 73.5081Z" fill="white"/>
<path d="M1449.75 122.803V3.32352H1471.37V45.4684C1472.83 44.0065 1475.67 42.3504 1479.89 40.5229C1484.1 38.6955 1489.08 37.7704 1494.83 37.7704C1503.13 37.7704 1510.22 39.7577 1516.08 43.7209C1521.94 47.6956 1526.44 52.9722 1529.55 59.5738C1532.66 66.1753 1534.22 73.4964 1534.22 81.5599C1534.22 90.1145 1532.23 97.9268 1528.27 105.019C1524.3 112.112 1518.71 117.789 1511.5 122.06C1504.3 126.332 1495.68 128.479 1485.67 128.479C1478.21 128.479 1471.35 127.862 1465.05 126.652C1458.76 125.429 1453.65 124.139 1449.75 122.803ZM1471.37 75.518V107.955C1473.08 108.446 1474.85 108.868 1476.68 109.234C1478.51 109.599 1481.39 109.782 1485.29 109.782C1491.15 109.782 1496.07 108.469 1500.05 105.842C1504.01 103.215 1507.04 99.7999 1509.12 95.5854C1511.2 91.3709 1512.23 86.8823 1512.23 82.1196C1512.23 77.7224 1511.5 73.565 1510.03 69.6589C1508.57 65.7528 1506.31 62.6005 1503.25 60.2248C1500.2 57.8377 1496.22 56.6499 1491.33 56.6499C1484.86 56.6499 1479.91 58.3289 1476.49 61.6867C1473.08 65.0446 1471.37 69.6589 1471.37 75.518Z" fill="white"/>
<path d="M541.909 261.607V195.214H583.711V203.677H551.457V222.991H575.739V231.546H551.457V253.041H586.098V261.595H541.909V261.607Z" fill="white"/>
<path d="M592.677 255.93L598.147 249.957C599.804 251.613 601.791 252.938 604.121 253.943C606.439 254.937 609.135 255.439 612.184 255.439C615.165 255.439 617.655 254.959 619.654 254C621.641 253.041 622.635 251.533 622.635 249.466C622.635 248.004 622.235 246.85 621.436 245.982C620.636 245.126 619.277 244.338 617.358 243.641C615.428 242.944 612.778 242.202 609.397 241.402C607.01 240.808 604.68 239.997 602.43 238.958C600.169 237.93 598.319 236.503 596.857 234.675C595.395 232.848 594.664 230.483 594.664 227.56C594.664 224.579 595.543 222.054 597.302 219.999C599.061 217.943 601.334 216.401 604.121 215.373C606.908 214.345 609.832 213.831 612.881 213.831C616.799 213.831 620.179 214.345 623.035 215.373C625.89 216.401 628.346 217.851 630.401 219.702L625.524 225.869C624.131 224.613 622.384 223.551 620.294 222.683C618.203 221.826 615.759 221.392 612.972 221.392C610.117 221.392 607.833 221.86 606.108 222.785C604.383 223.711 603.516 225.241 603.516 227.365C603.516 229.353 604.68 230.838 606.999 231.797C609.318 232.756 612.31 233.67 615.953 234.538C618.877 235.2 621.516 236.08 623.868 237.176C626.221 238.273 628.117 239.746 629.545 241.608C630.973 243.47 631.681 245.891 631.681 248.872C631.681 251.921 630.767 254.491 628.94 256.581C627.112 258.671 624.736 260.259 621.824 261.355C618.9 262.452 615.748 263 612.367 263C603.618 263 597.051 260.647 592.677 255.93Z" fill="white"/>
<path d="M676.875 249.466L682.346 255.234C680.29 257.552 677.732 259.437 674.682 260.853C671.633 262.281 668.149 262.989 664.231 262.989C659.252 262.989 654.957 261.927 651.337 259.802C647.716 257.678 644.918 254.777 642.931 251.088C640.943 247.41 639.95 243.173 639.95 238.398C639.95 233.887 640.978 229.775 643.033 226.052C645.089 222.34 647.956 219.37 651.645 217.143C655.323 214.916 659.526 213.808 664.231 213.808C668.149 213.808 671.598 214.505 674.579 215.898C677.56 217.292 680.119 219.188 682.243 221.575L676.372 227.251C674.979 225.527 673.289 224.167 671.301 223.174C669.314 222.18 666.95 221.678 664.231 221.678C661.045 221.678 658.304 222.454 656.019 224.019C653.735 225.584 651.988 227.617 650.789 230.141C649.589 232.665 648.995 235.417 648.995 238.398C648.995 241.254 649.612 243.961 650.834 246.508C652.056 249.066 653.804 251.133 656.065 252.732C658.315 254.32 661.045 255.119 664.231 255.119C666.95 255.119 669.394 254.605 671.553 253.577C673.711 252.561 675.482 251.19 676.875 249.466Z" fill="white"/>
<path d="M710.717 263C706 263 701.796 261.892 698.073 259.665C694.361 257.438 691.449 254.457 689.359 250.711C687.268 246.964 686.218 242.864 686.218 238.421C686.218 233.91 687.268 229.798 689.359 226.075C691.449 222.363 694.35 219.393 698.073 217.166C701.785 214.939 706 213.831 710.717 213.831C715.422 213.831 719.625 214.939 723.303 217.166C726.981 219.393 729.893 222.363 732.017 226.075C734.142 229.787 735.204 233.91 735.204 238.421C735.204 242.864 734.142 246.964 732.017 250.711C729.893 254.457 726.992 257.449 723.303 259.665C719.625 261.892 715.434 263 710.717 263ZM710.717 255.234C713.972 255.234 716.736 254.423 719.031 252.789C721.316 251.168 723.075 249.055 724.308 246.473C725.53 243.881 726.147 241.197 726.147 238.41C726.147 235.623 725.53 232.939 724.308 230.346C723.075 227.754 721.304 225.652 718.986 224.03C716.667 222.409 713.915 221.586 710.728 221.586C707.541 221.586 704.789 222.397 702.47 224.03C700.152 225.652 698.37 227.742 697.148 230.301C695.914 232.859 695.309 235.566 695.309 238.41C695.309 241.197 695.937 243.869 697.205 246.428C698.461 248.986 700.243 251.088 702.527 252.744C704.8 254.411 707.541 255.234 710.717 255.234Z" fill="white"/>
<path d="M745.255 261.607V195.214H754.209V261.607H745.255Z" fill="white"/>
<path d="M795.623 261.607L795.429 256.033C793.773 258.294 791.5 259.996 788.61 261.161C785.721 262.326 782.82 262.897 779.896 262.897C777.372 262.897 774.87 262.429 772.38 261.504C769.891 260.579 767.835 259.048 766.213 256.924C764.591 254.8 763.769 251.978 763.769 248.461C763.769 243.481 765.528 239.506 769.045 236.514C772.563 233.533 777.566 232.037 784.076 232.037C785.538 232.037 787.046 232.082 788.61 232.185C790.164 232.288 791.58 232.379 792.836 232.482C794.092 232.585 794.926 232.665 795.326 232.733V231.043C795.326 227.594 794.275 225.115 792.185 223.631C790.095 222.134 787.263 221.392 783.676 221.392C780.227 221.392 777.452 221.872 775.361 222.831C773.271 223.79 771.524 224.773 770.13 225.766L765.95 219.69C767.606 218.365 769.902 217.075 772.814 215.807C775.738 214.551 779.679 213.911 784.658 213.911C790.563 213.911 795.246 215.35 798.695 218.24C802.145 221.129 803.869 225.23 803.869 230.529V257.506C803.869 257.975 803.869 258.534 803.869 259.197C803.869 259.859 803.903 260.659 803.972 261.584H795.623V261.607ZM795.326 244.989V239.712C794.995 239.575 794.23 239.461 793.042 239.369C791.842 239.266 790.506 239.175 789.01 239.072C787.514 238.969 786.075 238.924 784.681 238.924C781.358 238.924 778.822 239.403 777.063 240.363C775.304 241.322 774.105 242.522 773.477 243.949C772.849 245.377 772.529 246.782 772.529 248.175C772.529 250.631 773.386 252.527 775.122 253.852C776.846 255.176 779.233 255.839 782.283 255.839C784.601 255.839 786.749 255.325 788.702 254.297C790.655 253.269 792.254 251.921 793.476 250.265C794.709 248.598 795.326 246.839 795.326 244.989Z" fill="white"/>
<path d="M825.09 261.607H816.136V219.805C816.136 219.336 816.136 218.811 816.136 218.217C816.136 217.623 816.101 216.664 816.033 215.327H824.588L824.884 222.797C825.615 221.735 826.632 220.57 827.923 219.313C829.213 218.057 830.858 216.961 832.845 216.024C834.832 215.099 837.22 214.631 840.006 214.631C841 214.631 841.914 214.699 842.747 214.825C843.581 214.962 844.358 215.156 845.089 215.419L843.102 223.779C841.902 223.311 840.383 223.082 838.522 223.082C835.998 223.082 833.725 223.733 831.703 225.024C829.681 226.315 828.071 228.028 826.872 230.152C825.673 232.277 825.079 234.629 825.079 237.222V261.607H825.09Z" fill="white"/>
<path d="M92.8087 46.4736L221.345 177.557L208.873 214.962L138.997 143.898L110.877 115.299L98.1882 153.355L70.617 236.068L33.5547 235.749L92.8087 46.4736ZM81.6272 0L0.238525 260.008L88.2745 260.784L121.499 161.121L219.495 260.784L249.396 171.092L81.6272 0Z" fill="#307FE2"/>
<path d="M391.044 24.7159L428.106 25.0357L368.864 214.299L240.327 83.2161L252.799 45.8111L322.675 116.875L350.795 145.474L363.484 107.418L391.044 24.7159ZM373.398 0L340.173 99.6629L242.178 0L212.276 89.692L380.034 260.773L461.422 0.776653L373.398 0Z" fill="#F2B025"/>
</g>
<defs>
<clipPath id="clip0">
<rect width="1533.99" height="263" fill="white" transform="translate(0.238525)"/>
</clipPath>
</defs>
</svg>